<?xml version="1.0" encoding="UTF-8" standalone="no"?>
<svg
   xmlns:dc="http://purl.org/dc/elements/1.1/"
   xmlns:cc="http://creativecommons.org/ns#"
   xmlns:rdf="http://www.w3.org/1999/02/22-rdf-syntax-ns#"
   xmlns:svg="http://www.w3.org/2000/svg"
   xmlns="http://www.w3.org/2000/svg"
   xmlns:sodipodi="http://sodipodi.sourceforge.net/DTD/sodipodi-0.dtd"
   xmlns:inkscape="http://www.inkscape.org/namespaces/inkscape"
   version="1.0"
   width="30"
   height="30"
   viewBox="0 0 22.500001 22.5"
   preserveAspectRatio="xMidYMid meet"
   id="svg14"
   sodipodi:docname="gears.svg"
   inkscape:version="0.92.2 5c3e80d, 2017-08-06">
  <defs
     id="defs18" />
  <sodipodi:namedview
     pagecolor="#ffffff"
     bordercolor="#666666"
     borderopacity="1"
     objecttolerance="10"
     gridtolerance="10"
     guidetolerance="10"
     inkscape:pageopacity="0"
     inkscape:pageshadow="2"
     inkscape:window-width="1400"
     inkscape:window-height="763"
     id="namedview16"
     showgrid="false"
     inkscape:zoom="3.57"
     inkscape:cx="46.310792"
     inkscape:cy="10.660523"
     inkscape:window-x="0"
     inkscape:window-y="0"
     inkscape:window-maximized="0"
     inkscape:current-layer="g12"
     units="px" />
  <metadata
     id="metadata2">
Created by potrace 1.15, written by Peter Selinger 2001-2017
<rdf:RDF>
  <cc:Work
     rdf:about="">
    <dc:format>image/svg+xml</dc:format>
    <dc:type
       rdf:resource="http://purl.org/dc/dcmitype/StillImage" />
    <dc:title></dc:title>
  </cc:Work>
</rdf:RDF>
</metadata>
  <g
     transform="matrix(0.1,0,0,-0.1,0,22.499989)"
     id="g12"
     style="fill:#000000;stroke:none">
    <path
       d="m 115.19694,212.55619 c -0.12908,-0.42872 -1.67783,-5.65959 -3.48465,-11.6623 -1.76386,-5.95978 -3.22651,-10.89046 -3.22651,-10.97626 0,-0.0429 -1.41967,-0.21439 -3.0975,-0.38585 -1.7208,-0.17152 -5.24851,-0.7289 -7.87276,-1.28628 -2.5812,-0.55738 -4.7322,-0.98616 -4.77525,-0.9433 -0.0431,0 -3.01141,4.28764 -6.62513,9.47565 -3.57068,5.188 -6.66819,9.60424 -6.84024,9.77569 -0.25815,0.25726 -15.22929,-6.13123 -15.91756,-6.77441 -0.0861,-0.12859 1.16152,-5.4024 2.75325,-11.83375 2.53823,-10.03303 2.83935,-11.70516 2.28008,-12.00536 -1.16153,-0.6431 -5.80771,-4.20184 -8.17388,-6.2599 -1.24756,-1.11475 -2.58121,-2.27245 -2.96836,-2.57257 -0.60232,-0.47165 -2.2371,0.12867 -11.52953,4.37337 -5.93679,2.70124 -10.97019,4.93075 -11.18529,4.93075 -0.30113,0 -8.905211,-11.23351 -10.066811,-13.16297 -0.215101,-0.38585 2.323127,-3.12995 8.259982,-8.9182 l 8.561039,-8.40368 -1.41968,-3.08709 c -0.77438,-1.71507 -2.06498,-4.93075 -2.83935,-7.16033 -0.77438,-2.22952 -1.41968,-4.11612 -1.46266,-4.20184 -0.0861,-0.0857 -5.592676,-0.60025 -12.303833,-1.20056 -6.711232,-0.60024 -12.346888,-1.24335 -12.475963,-1.37202 -0.25815,-0.30012 -2.2371009,-16.42151 -2.0220009,-16.59304 0.0861,-0.0429 5.4636049,-1.4149 11.9597359,-3.08707 l 11.830588,-3.00132 0.301125,-3.17283 c 0.3012,-2.95845 1.333648,-8.875347 1.892928,-10.933407 0.2151,-0.81464 -1.03245,-1.80079 -9.808661,-7.67482 -5.506581,-3.73021 -10.195885,-6.90304 -10.367936,-7.07455 -0.301125,-0.25724 5.764731,-14.23486 6.539107,-15.09238 0.129075,-0.1715 5.678706,1.11478 12.30384,2.8727 6.58215,1.75792 12.00271,3.17282 12.04576,3.08707 0.6453,-1.02902 5.93678,-7.58905 7.57156,-9.38985 l 2.19405,-2.44394 -5.50658,-10.7619 -5.54963,-10.80477 1.33358,-1.02902 c 0.7314,-0.55739 3.87187,-2.78695 6.9693,-4.88788 l 5.63573,-3.85885 8.90521,8.4466 c 4.86128,4.67349 9.20641,8.44658 9.59356,8.44658 0.38715,-0.0429 2.151,-0.68601 3.91486,-1.45778 1.76385,-0.72889 4.77525,-1.8008 6.66818,-2.35819 l 3.4416,-0.98615 0.25815,-2.1438 c 0.17205,-1.15765 0.51623,-6.38854 0.81743,-11.57654 0.30112,-5.23089 0.68827,-9.689996 0.8604,-9.947246 0.30112,-0.51452 16.60584,-2.05806 17.03604,-1.62929 0.12907,0.12863 1.1616,3.51584 2.36618,7.460436 4.5171,15.30675 4.64618,15.56401 5.6787,15.77839 0.51623,0.0858 2.66723,0.42876 4.73221,0.68601 2.10802,0.30014 5.16248,0.85752 6.79725,1.28629 l 3.01141,0.72889 2.92538,-4.1161 c 1.5918,-2.27243 4.68923,-6.68867 6.88328,-9.81862 3.26955,-4.67349 4.12995,-5.65965 4.81831,-5.44527 1.0755,0.34302 14.62695,6.56004 14.92809,6.81731 0.12906,0.12863 -1.07551,5.31663 -2.66731,11.49077 -1.54867,6.21704 -2.83928,11.40505 -2.83928,11.53368 0,0.1715 1.50571,1.41491 3.35558,2.74407 1.80685,1.37203 4.56016,3.60158 6.10889,4.97362 l 2.79632,2.44394 4.30205,-1.92943 c 2.36612,-1.0719 7.3565,-3.38721 11.09928,-5.10225 l 6.79722,-3.12995 5.16247,6.90305 5.16245,6.94592 -8.56107,8.57522 -8.6041,8.61809 1.6778,3.43009 c 0.90343,1.88654 2.15102,5.01649 2.79633,6.9888 0.64532,1.92943 1.29062,3.64445 1.4627,3.73022 0.17208,0.0858 5.76474,0.68601 12.47592,1.28627 6.71119,0.60028 12.26083,1.15766 12.30386,1.20053 0.086,0.12863 1.6778,15.006637 1.6778,15.907007 0,0.7289 -1.54874,1.20056 -11.83063,3.85885 l -11.83062,3.04423 -0.51626,4.41623 c -0.25811,2.44391 -0.81738,5.78825 -1.16154,7.37465 -0.38718,1.62935 -0.68832,3.04423 -0.68832,3.17289 0,0.0857 4.6462,3.30141 10.3249,7.1174 5.67869,3.77313 10.32491,6.94594 10.32491,7.03167 0,0.0429 -1.54874,3.47301 -3.44163,7.58905 -2.7103,5.95977 -3.5707,7.41759 -4.17299,7.33186 -0.4302,-0.0858 -5.8938,-1.50068 -12.13176,-3.12995 -6.23797,-1.67221 -11.35741,-2.95849 -11.44344,-2.87276 -0.0861,0.0858 -0.98948,1.32922 -2.06499,2.78696 -1.07551,1.41495 -3.26955,3.98752 -4.86131,5.65966 l -2.88237,3.08708 5.4636,10.63327 c 2.96841,5.87405 5.42058,10.84766 5.42058,11.10492 0,0.42871 -13.03521,9.51844 -13.6805,9.51844 -0.34417,0 -6.06589,-5.3166 -15.83155,-14.70645 l -2.23703,-2.10092 -4.56016,1.75787 c -2.49517,0.98616 -5.80778,2.10099 -7.31348,2.48684 l -2.75333,0.72891 -0.2151,2.40104 c -0.17205,1.28628 -0.51622,6.56002 -0.77437,11.66229 -0.30113,5.14515 -0.6453,9.51852 -0.81735,9.73284 -0.12908,0.25733 -3.82884,0.7289 -8.17389,1.07196 -9.67966,0.81464 -8.94826,0.8575 -9.20641,-0.0429 z m 12.26086,-42.06143 c 23.53218,-5.53099 40.35315,-22.1669 45.17144,-44.71973 1.2476,-5.78824 1.37666,-15.82126 0.25812,-21.65241 -4.68923,-25.082517 -24.47866,-44.805507 -49.98979,-49.864877 -19.61732,-3.85886 -40.22411,2.01518 -54.0767,15.47826 -4.90433,4.75925 -8.47501,9.73287 -11.57244,15.99277 -2.8824,5.87404 -4.34513,10.63328 -5.29155,17.064677 -2.71028,18.1795 3.9579,37.21645 17.85346,50.89394 8.86224,8.70381 21.1231,15.00657 33.72806,17.36482 5.07638,0.90036 18.92897,0.60024 23.9194,-0.55745 z"
       id="path6"
       inkscape:connector-curvature="0"
       style="stroke-width:0.0429482" />
    <circle
       style="opacity:0.98000004;fill:#d4b24e;fill-opacity:1;stroke:#121212;stroke-width:15.18882751;stroke-linejoin:round;stroke-miterlimit:4;stroke-dasharray:none;stroke-dashoffset:0;stroke-opacity:1;paint-order:markers stroke fill"
       id="path847"
       cx="112.5"
       cy="-112.49989"
       transform="scale(1,-1)"
       r="11.155586" />
    <path
       style="fill:none;fill-rule:evenodd;stroke:#000000;stroke-width:5.55373859px;stroke-linecap:butt;stroke-linejoin:miter;stroke-opacity:1"
       d="m 3.1542294,163.11392 -0.3609713,61.67589 212.1848719,-1.15197 2.10084,-2.30395"
       id="path883"
       inkscape:connector-curvature="0" />
  </g>
</svg>
