<?xml version="1.0" encoding="UTF-8" standalone="no"?>
<svg
   xmlns:dc="http://purl.org/dc/elements/1.1/"
   xmlns:cc="http://creativecommons.org/ns#"
   xmlns:rdf="http://www.w3.org/1999/02/22-rdf-syntax-ns#"
   xmlns:svg="http://www.w3.org/2000/svg"
   xmlns="http://www.w3.org/2000/svg"
   id="svg14"
   preserveAspectRatio="xMidYMid meet"
   viewBox="0 0 1280.000000 870.000000"
   height="870.000000pt"
   width="1280.000000pt"
   version="1.0">
  <defs
     id="defs18" />
  <metadata
     id="metadata2">
Created by potrace 1.15, written by Peter Selinger 2001-2017
<rdf:RDF>
  <cc:Work
     rdf:about="">
    <dc:format>image/svg+xml</dc:format>
    <dc:type
       rdf:resource="http://purl.org/dc/dcmitype/StillImage" />
    <dc:title></dc:title>
  </cc:Work>
</rdf:RDF>
</metadata>
  <g
     id="g12"
     stroke="none"
     fill="#000000"
     transform="translate(0.000000,870.000000) scale(0.100000,-0.100000)">
    <path
       id="path4"
       d="M8421 8538 c-24 -90 -50 -184 -58 -209 l-13 -46 -63 -7 c-34 -4 -92 -14 -129 -22 -37 -9 -72 -13 -77 -10 -5 4 -60 79 -121 169 -62 89 -116 166 -120 170 -5 6 -263 -103 -277 -117 -2 -1 22 -96 53 -210 30 -115 54 -209 52 -210 -26 -19 -134 -105 -167 -134 l-45 -39 -193 93 -193 93 -85 -120 c-47 -66 -85 -123 -85 -127 0 -4 68 -74 150 -157 l150 -150 -33 -80 c-19 -44 -39 -101 -46 -127 -15 -55 -2 -51 -231 -68 -74 -6 -154 -13 -176 -16 l-41 -5 -13 -144 c-7 -80 -11 -148 -7 -151 3 -3 93 -30 200 -59 107 -29 200 -55 206 -59 6 -4 11 -24 11 -44 0 -20 9 -77 19 -127 10 -49 17 -93 15 -97 -3 -4 -81 -60 -174 -124 -94 -64 -170 -121 -170 -126 0 -11 109 -250 118 -260 6 -6 306 66 398 96 17 5 30 -6 77 -66 30 -40 69 -86 86 -102 17 -17 31 -33 31 -37 0 -4 -41 -94 -90 -199 -50 -106 -90 -194 -88 -195 25 -22 235 -165 243 -165 6 0 77 67 159 149 l149 149 51 -23 c28 -12 83 -32 121 -45 39 -12 73 -26 78 -29 4 -4 14 -99 23 -212 9 -112 19 -207 23 -211 3 -4 71 -13 150 -20 117 -11 144 -12 148 -1 3 7 29 100 58 206 l52 192 34 7 c19 4 80 15 137 25 l102 19 123 -177 c118 -170 123 -176 147 -165 14 6 75 34 137 63 l112 52 -50 188 c-27 103 -52 197 -55 209 -4 17 5 29 48 59 29 21 76 61 105 88 l52 49 196 -92 c107 -51 197 -91 199 -89 14 16 158 223 161 232 2 7 -63 82 -144 167 -132 137 -148 157 -138 175 6 11 27 67 48 125 l37 105 123 11 c68 7 165 15 215 19 l91 7 12 121 c6 67 11 136 11 152 l0 30 -205 55 c-177 47 -206 57 -209 75 -2 11 -11 65 -19 120 -9 55 -18 107 -22 115 -4 11 44 49 174 139 l179 123 -62 134 c-38 83 -67 133 -76 134 -8 0 -99 -23 -202 -50 -191 -51 -218 -56 -218 -42 0 5 -36 52 -80 106 l-81 97 86 182 c48 100 89 187 92 193 2 7 -51 51 -119 98 l-122 86 -152 -151 -152 -152 -89 36 c-48 19 -107 40 -129 46 -48 13 -43 -7 -65 283 l-12 157 -41 6 c-40 5 -241 25 -255 25 -3 0 -26 -73 -50 -162z m189 -593 c390 -59 719 -334 845 -706 37 -109 55 -219 55 -344 0 -246 -78 -469 -230 -658 -147 -183 -337 -307 -566 -368 -114 -31 -348 -38 -464 -14 -403 82 -717 373 -825 766 -36 128 -45 334 -21 462 43 226 147 418 314 579 240 231 563 334 892 283z" />
    <path
       id="path6"
       d="M2476 7633 c-3 -10 -39 -132 -81 -272 -41 -139 -75 -254 -75 -256 0 -1 -33 -5 -72 -9 -40 -4 -122 -17 -183 -30 -60 -13 -110 -23 -111 -22 -1 0 -70 100 -154 221 -83 121 -155 224 -159 228 -6 6 -354 -143 -370 -158 -2 -3 27 -126 64 -276 59 -234 66 -273 53 -280 -27 -15 -135 -98 -190 -146 -29 -26 -60 -53 -69 -60 -14 -11 -52 3 -268 102 -138 63 -255 115 -260 115 -7 0 -207 -262 -234 -307 -5 -9 54 -73 192 -208 l199 -196 -33 -72 c-18 -40 -48 -115 -66 -167 -18 -52 -33 -96 -34 -98 -2 -2 -130 -14 -286 -28 -156 -14 -287 -29 -290 -32 -6 -7 -52 -383 -47 -387 2 -1 127 -33 278 -72 l275 -70 7 -74 c7 -69 31 -207 44 -255 5 -19 -24 -42 -228 -179 -128 -87 -237 -161 -241 -165 -7 -6 134 -332 152 -352 3 -4 132 26 286 67 153 41 279 74 280 72 15 -24 138 -177 176 -219 l51 -57 -128 -251 -129 -252 31 -24 c17 -13 90 -65 162 -114 l131 -90 207 197 c113 109 214 197 223 197 9 -1 50 -16 91 -34 41 -17 111 -42 155 -55 l80 -23 6 -50 c4 -27 12 -149 19 -270 7 -122 16 -226 20 -232 7 -12 386 -48 396 -38 3 3 27 82 55 174 105 357 108 363 132 368 12 2 62 10 110 16 49 7 120 20 158 30 l70 17 68 -96 c37 -53 109 -156 160 -229 76 -109 96 -132 112 -127 25 8 340 153 347 159 3 3 -25 124 -62 268 -36 145 -66 266 -66 269 0 4 35 33 78 64 42 32 106 84 142 116 l65 57 100 -45 c55 -25 171 -79 258 -119 l158 -73 120 161 120 162 -199 200 -200 201 39 80 c21 44 50 117 65 163 15 45 30 85 34 87 4 2 134 16 290 30 156 14 285 27 286 28 2 3 39 350 39 371 0 17 -36 28 -275 90 l-275 71 -12 103 c-6 57 -19 135 -27 172 -9 38 -16 71 -16 74 0 2 108 77 240 166 132 88 240 162 240 164 0 1 -36 81 -80 177 -63 139 -83 173 -97 171 -10 -2 -137 -35 -282 -73 -145 -39 -264 -69 -266 -67 -2 2 -23 31 -48 65 -25 33 -76 93 -113 132 l-67 72 127 248 c69 137 126 253 126 259 0 10 -303 222 -318 222 -8 0 -141 -124 -368 -343 l-52 -49 -106 41 c-58 23 -135 49 -170 58 l-64 17 -5 56 c-4 30 -12 153 -18 272 -7 120 -15 222 -19 227 -3 6 -89 17 -190 25 -225 19 -208 20 -214 -1z m285 -981 c547 -129 938 -517 1050 -1043 29 -135 32 -369 6 -505 -109 -585 -569 -1045 -1162 -1163 -456 -90 -935 47 -1257 361 -114 111 -197 227 -269 373 -67 137 -101 248 -123 398 -63 424 92 868 415 1187 206 203 491 350 784 405 118 21 440 14 556 -13z" />
    <path
       id="path8"
       d="M6221 6112 c-30 -111 -60 -202 -69 -209 -9 -7 -32 -13 -51 -13 -20 0 -75 -8 -124 -18 l-87 -18 -121 178 c-67 99 -127 177 -133 175 -6 -3 -68 -31 -139 -62 -112 -51 -127 -60 -121 -78 3 -11 28 -105 54 -209 l48 -189 -56 -41 c-32 -23 -78 -62 -104 -86 l-48 -45 -62 28 c-35 15 -120 56 -190 91 -70 35 -132 64 -137 64 -5 0 -48 -55 -96 -121 l-87 -121 152 -153 152 -152 -28 -64 c-14 -35 -37 -93 -49 -129 -20 -59 -25 -65 -51 -68 -16 -1 -111 -8 -211 -15 -101 -8 -185 -16 -187 -18 -4 -4 -36 -292 -32 -296 1 -1 94 -28 208 -59 l206 -57 7 -66 c3 -36 13 -94 21 -129 8 -35 14 -67 14 -71 0 -4 -79 -61 -175 -126 -96 -65 -175 -123 -175 -127 0 -8 109 -257 117 -267 1 -2 93 19 203 47 109 29 203 52 208 52 5 0 29 -26 53 -57 24 -32 63 -79 86 -104 l43 -46 -94 -196 -94 -195 116 -83 c63 -46 120 -86 125 -88 5 -2 77 64 161 147 l151 151 45 -20 c25 -12 81 -34 125 -50 49 -17 82 -35 87 -46 3 -10 12 -107 19 -215 7 -109 15 -198 18 -198 3 0 65 -7 136 -15 72 -8 137 -15 146 -15 11 0 28 47 69 193 29 105 57 200 62 210 6 11 21 17 46 17 20 0 80 9 132 19 52 11 95 18 96 17 0 0 53 -79 118 -174 65 -96 116 -175 114 -177 -2 -2 -67 25 -145 61 -79 35 -144 64 -146 64 -7 0 -167 -238 -167 -247 0 -4 68 -73 151 -152 105 -101 149 -149 145 -160 -3 -9 -23 -68 -45 -131 -30 -85 -45 -116 -58 -118 -10 -1 -105 -11 -211 -21 -107 -11 -195 -21 -197 -23 -6 -6 -27 -289 -22 -294 3 -3 96 -29 208 -57 l202 -53 23 -119 c12 -66 25 -127 28 -135 4 -11 -43 -50 -169 -139 -96 -68 -175 -128 -175 -132 0 -4 26 -62 59 -127 32 -66 60 -125 62 -131 3 -7 80 11 214 48 115 33 210 59 210 58 2 -9 89 -113 128 -153 l49 -52 -90 -198 -90 -198 121 -83 c67 -46 124 -83 128 -83 4 0 73 68 154 152 141 144 148 151 174 141 14 -6 71 -26 126 -44 55 -18 101 -34 103 -35 2 -1 13 -98 25 -216 l22 -213 65 -6 c36 -4 103 -9 150 -13 l85 -7 29 113 c15 62 40 156 53 210 l26 96 78 12 c43 6 102 17 131 25 29 7 56 11 60 9 3 -2 62 -81 129 -175 67 -93 125 -168 129 -167 83 33 260 125 260 134 0 8 -25 102 -56 210 -30 108 -54 197 -52 199 2 1 30 24 63 50 33 26 79 66 102 87 l41 40 189 -86 c103 -47 193 -86 198 -86 6 0 49 55 95 122 l84 122 -156 151 -156 150 24 55 c13 30 33 87 45 125 11 39 23 72 25 74 2 2 99 13 216 25 l213 21 11 145 c6 80 9 148 5 152 -3 3 -96 29 -205 57 -110 28 -201 53 -203 55 -2 2 -8 32 -13 67 -6 35 -17 95 -26 132 -9 37 -15 69 -13 71 2 1 81 58 176 125 l172 122 -23 52 c-66 146 -102 216 -112 217 -6 0 -100 -25 -210 -56 l-199 -55 -18 23 c-10 13 -49 58 -85 101 -37 43 -68 82 -70 86 -1 4 36 92 83 195 47 103 85 191 85 194 -1 4 -56 44 -123 90 l-122 83 -152 -155 -151 -155 -70 29 c-39 16 -97 36 -130 45 l-59 17 -20 209 c-11 115 -23 212 -27 216 -9 10 -284 28 -292 20 -4 -3 -30 -98 -59 -209 l-52 -203 -59 -7 c-32 -3 -90 -13 -127 -22 -38 -9 -72 -16 -77 -16 -8 0 -250 332 -250 343 0 3 68 -28 151 -69 83 -41 152 -74 154 -74 1 0 42 54 90 120 l87 120 -149 157 -149 156 37 91 c20 50 40 106 44 124 4 19 12 35 18 37 7 3 104 11 216 20 113 8 206 17 208 18 6 6 34 290 29 295 -3 3 -97 31 -208 62 l-203 57 -3 34 c-3 36 -28 180 -38 215 -5 17 21 38 175 142 l179 122 -60 135 c-34 74 -66 135 -73 135 -7 0 -99 -22 -206 -50 -107 -27 -197 -50 -200 -50 -3 0 -20 20 -38 45 -18 25 -57 73 -86 106 l-53 61 89 184 c49 101 90 189 91 195 3 12 -218 179 -237 179 -5 0 -75 -65 -155 -145 -80 -80 -151 -145 -158 -145 -7 0 -29 8 -50 19 -20 10 -74 31 -118 46 l-82 27 -6 62 c-3 33 -11 129 -17 211 -6 83 -14 153 -17 156 -7 6 -233 29 -277 29 -17 0 -27 -25 -74 -198z m210 -557 c443 -77 791 -430 864 -876 82 -508 -216 -1005 -706 -1172 -531 -183 -1115 86 -1329 610 -82 204 -97 459 -39 673 25 89 92 236 146 317 117 178 337 344 546 413 152 50 357 64 518 35z m840 -2050 l30 -16 -133 -65 c-73 -36 -134 -67 -135 -68 -1 -1 24 -94 56 -208 l58 -207 -76 -60 c-42 -33 -89 -73 -105 -90 l-28 -30 -44 22 c-24 11 -44 23 -44 26 0 4 61 33 135 65 74 32 135 61 135 63 0 3 -22 92 -50 199 -27 107 -50 200 -50 208 0 7 30 36 68 64 37 27 80 64 96 81 34 35 45 37 87 16z m954 -679 c176 -52 320 -133 444 -251 244 -232 364 -547 331 -872 -38 -374 -253 -685 -585 -848 -191 -93 -384 -129 -578 -108 -604 69 -1029 606 -946 1199 55 397 332 735 706 860 137 46 195 54 373 50 143 -3 177 -7 255 -30z" />
    <path
       id="path10"
       d="M10930 4412 l-53 -210 -76 -12 c-42 -6 -102 -18 -135 -26 -32 -8 -59 -14 -61 -12 -1 2 -55 77 -120 168 -64 91 -121 169 -125 173 -11 12 -281 -119 -275 -135 10 -28 114 -402 112 -404 -71 -55 -131 -105 -164 -137 l-42 -40 -191 87 c-105 47 -194 86 -199 86 -5 0 -46 -55 -91 -121 l-83 -122 153 -151 152 -151 -17 -45 c-10 -25 -29 -81 -43 -125 -14 -44 -27 -82 -29 -84 -2 -3 -99 -14 -216 -25 l-212 -21 -7 -80 c-4 -44 -9 -112 -13 -151 l-6 -71 210 -53 210 -53 7 -46 c6 -43 25 -146 38 -201 5 -23 -9 -35 -170 -149 -96 -68 -174 -127 -172 -131 35 -86 125 -260 135 -260 8 0 102 25 211 56 l197 55 25 -32 c14 -18 54 -66 89 -107 l63 -73 -86 -188 c-47 -104 -86 -192 -86 -197 0 -5 55 -47 123 -93 l122 -83 151 157 c145 151 152 157 175 144 13 -7 71 -29 129 -49 l105 -36 20 -205 c11 -112 23 -209 27 -215 5 -7 60 -14 135 -18 71 -4 135 -9 144 -12 13 -3 25 34 69 206 47 183 56 211 74 214 12 2 62 11 111 20 50 9 101 18 115 22 24 5 35 -8 145 -162 66 -92 123 -171 126 -176 3 -5 66 21 140 57 101 50 133 70 131 83 -2 9 -28 103 -58 207 l-53 190 32 25 c17 14 64 53 104 88 40 34 75 62 78 62 3 0 91 -39 196 -86 105 -48 194 -82 198 -78 4 5 43 60 86 123 l78 113 -153 153 -153 153 36 99 c20 54 40 112 45 128 l9 30 211 21 c117 12 214 23 216 25 5 6 27 291 23 295 -2 3 -96 28 -210 57 l-205 52 -12 77 c-6 43 -18 104 -26 135 -8 31 -11 59 -7 63 4 4 80 58 168 120 88 62 164 116 168 120 13 11 -119 281 -135 275 -7 -3 -94 -28 -193 -55 -99 -28 -187 -53 -196 -55 -11 -4 -25 7 -41 32 -14 21 -54 69 -88 106 l-62 68 86 189 c47 105 86 194 86 199 0 5 -55 46 -121 91 l-121 82 -153 -152 -153 -153 -44 18 c-23 10 -81 30 -128 45 l-85 27 -20 214 -20 214 -85 7 c-47 3 -115 9 -151 13 l-66 6 -53 -209z m285 -557 c232 -48 462 -191 611 -378 75 -94 163 -265 193 -377 102 -378 -4 -770 -283 -1043 -412 -403 -1081 -400 -1486 5 -210 210 -312 454 -314 748 -2 270 81 494 259 704 155 182 413 321 660 355 93 13 261 6 360 -14z" />
  </g>
</svg>
