<?xml version="1.0" encoding="UTF-8" standalone="no"?>
<svg
   xmlns:dc="http://purl.org/dc/elements/1.1/"
   xmlns:cc="http://creativecommons.org/ns#"
   xmlns:rdf="http://www.w3.org/1999/02/22-rdf-syntax-ns#"
   xmlns:svg="http://www.w3.org/2000/svg"
   xmlns="http://www.w3.org/2000/svg"
   id="svg14"
   preserveAspectRatio="xMidYMid meet"
   viewBox="0 0 37.500001 37.5"
   height="50"
   width="50"
   version="1.0">
  <defs
     id="defs18" />
  <metadata
     id="metadata2">
Created by potrace 1.15, written by Peter Selinger 2001-2017
<rdf:RDF>
  <cc:Work
     rdf:about="">
    <dc:format>image/svg+xml</dc:format>
    <dc:type
       rdf:resource="http://purl.org/dc/dcmitype/StillImage" />
    <dc:title></dc:title>
  </cc:Work>
</rdf:RDF>
</metadata>
  <g
     style="fill:#000000;stroke:none"
     id="g12"
     transform="matrix(0.1,0,0,-0.1,0,37.499989)">
    <path
       style="stroke-width:0.0429482"
       id="path6"
       d="m 123.08563,332.54678 c -0.12908,-0.42872 -1.67783,-5.65959 -3.48465,-11.6623 -1.76386,-5.95978 -3.22651,-10.89046 -3.22651,-10.97626 0,-0.0429 -1.41967,-0.21439 -3.0975,-0.38585 -1.7208,-0.17152 -5.24851,-0.7289 -7.87276,-1.28628 -2.5812,-0.55738 -4.7322,-0.98616 -4.77525,-0.9433 -0.0431,0 -3.011406,4.28764 -6.625134,9.47565 -3.570679,5.188 -6.668182,9.60424 -6.840233,9.77569 -0.25815,0.25726 -15.229289,-6.13123 -15.917566,-6.77441 -0.0861,-0.12859 1.161527,-5.4024 2.753254,-11.83375 2.538227,-10.03303 2.839353,-11.70516 2.280077,-12.00536 -1.161526,-0.6431 -5.807706,-4.20184 -8.173883,-6.2599 -1.247552,-1.11475 -2.581203,-2.27245 -2.968354,-2.57257 -0.602325,-0.47165 -2.237102,0.12867 -11.529536,4.37337 -5.936781,2.70124 -10.970186,4.93075 -11.185286,4.93075 -0.301126,0 -8.90521,-11.23351 -10.06681,-13.16297 -0.215101,-0.38585 2.323127,-3.12995 8.259982,-8.9182 l 8.561035,-8.40368 -1.419677,-3.08709 c -0.774375,-1.71507 -2.064977,-4.93075 -2.839353,-7.16033 -0.774375,-2.22952 -1.419676,-4.11612 -1.462652,-4.20184 -0.0861,-0.0857 -5.59268,-0.60025 -12.303837,-1.20056 -6.711232,-0.60024 -12.346888,-1.24335 -12.475963,-1.37202 -0.25815,-0.30012 -2.237101,-16.42151 -2.022001,-16.59304 0.0861,-0.0429 5.463605,-1.4149 11.959736,-3.08707 l 11.830588,-3.00132 0.301125,-3.17283 c 0.3012,-2.95845 1.333652,-8.87535 1.892927,-10.93341 0.2151,-0.81464 -1.032451,-1.80079 -9.80866,-7.67482 -5.506581,-3.73021 -10.195885,-6.90304 -10.367936,-7.07455 -0.301125,-0.25724 5.764731,-14.23486 6.539107,-15.09238 0.129075,-0.1715 5.678706,1.11478 12.303838,2.8727 6.582156,1.75792 12.002712,3.17282 12.045761,3.08707 0.645301,-1.02902 5.936782,-7.58905 7.571558,-9.38985 l 2.194053,-2.44394 -5.506581,-10.7619 -5.549631,-10.80477 1.333577,-1.02902 c 0.7314,-0.55739 3.871878,-2.78695 6.969307,-4.88788 l 5.63573,-3.85885 8.905209,8.4466 c 4.861281,4.67349 9.206409,8.44658 9.59356,8.44658 0.387151,-0.0429 2.151002,-0.68601 3.914854,-1.45778 1.763852,-0.72889 4.775255,-1.8008 6.668182,-2.35819 l 3.441604,-0.98615 0.25815,-2.1438 c 0.17205,-1.15765 0.516225,-6.38854 0.817425,-11.57654 0.301125,-5.23089 0.688274,-9.69 0.860404,-9.94725 0.30112,-0.51452 16.60584,-2.05806 17.03604,-1.62929 0.12907,0.12863 1.1616,3.51584 2.36618,7.46044 4.5171,15.30675 4.64618,15.56401 5.6787,15.77839 0.51623,0.0858 2.66723,0.42876 4.73221,0.68601 2.10802,0.30014 5.16248,0.85752 6.79725,1.28629 l 3.01141,0.72889 2.92538,-4.1161 c 1.5918,-2.27243 4.68923,-6.68867 6.88328,-9.81862 3.26955,-4.67349 4.12995,-5.65965 4.81831,-5.44527 1.0755,0.34302 14.62695,6.56004 14.92809,6.81731 0.12906,0.12863 -1.07551,5.31663 -2.66731,11.49077 -1.54867,6.21704 -2.83928,11.40505 -2.83928,11.53368 0,0.1715 1.50571,1.41491 3.35558,2.74407 1.80685,1.37203 4.56016,3.60158 6.10889,4.97362 l 2.79632,2.44394 4.30205,-1.92943 c 2.36612,-1.0719 7.3565,-3.38721 11.09928,-5.10225 l 6.79722,-3.12995 5.16247,6.90305 5.16245,6.94592 -8.56107,8.57522 -8.6041,8.61809 1.6778,3.43009 c 0.90343,1.88654 2.15102,5.01649 2.79633,6.9888 0.64532,1.92943 1.29062,3.64445 1.4627,3.73022 0.17208,0.0858 5.76474,0.68601 12.47592,1.28627 6.71119,0.60028 12.26083,1.15766 12.30386,1.20053 0.086,0.12863 1.6778,15.00664 1.6778,15.90701 0,0.7289 -1.54874,1.20056 -11.83063,3.85885 l -11.83062,3.04423 -0.51626,4.41623 c -0.25811,2.44391 -0.81738,5.78825 -1.16154,7.37465 -0.38718,1.62935 -0.68832,3.04423 -0.68832,3.17289 0,0.0857 4.6462,3.30141 10.3249,7.1174 5.67869,3.77313 10.32491,6.94594 10.32491,7.03167 0,0.0429 -1.54874,3.47301 -3.44163,7.58905 -2.7103,5.95977 -3.5707,7.41759 -4.17299,7.33186 -0.4302,-0.0858 -5.8938,-1.50068 -12.13176,-3.12995 -6.23797,-1.67221 -11.35741,-2.95849 -11.44344,-2.87276 -0.0861,0.0858 -0.98948,1.32922 -2.06499,2.78696 -1.07551,1.41495 -3.26955,3.98752 -4.86131,5.65966 l -2.88237,3.08708 5.4636,10.63327 c 2.96841,5.87405 5.42058,10.84766 5.42058,11.10492 0,0.42871 -13.03521,9.51844 -13.6805,9.51844 -0.34417,0 -6.06589,-5.3166 -15.83155,-14.70645 l -2.23703,-2.10092 -4.56016,1.75787 c -2.49517,0.98616 -5.80778,2.10099 -7.31348,2.48684 l -2.75333,0.72891 -0.2151,2.40104 c -0.17205,1.28628 -0.51622,6.56002 -0.77437,11.66229 -0.30113,5.14515 -0.6453,9.51852 -0.81735,9.73284 -0.12908,0.25733 -3.82884,0.7289 -8.17389,1.07196 -9.67966,0.81464 -8.94826,0.8575 -9.20641,-0.0429 z m 12.26086,-42.06143 c 23.53218,-5.53099 40.35315,-22.1669 45.17144,-44.71973 1.2476,-5.78824 1.37666,-15.82126 0.25812,-21.65241 -4.68923,-25.08252 -24.47866,-44.80551 -49.98979,-49.86488 -19.61732,-3.85886 -40.224113,2.01518 -54.076701,15.47826 -4.90433,4.75925 -8.475009,9.73287 -11.572438,15.99277 -2.882402,5.87404 -4.345129,10.63328 -5.291555,17.06468 -2.710278,18.1795 3.957904,37.21645 17.853468,50.89394 8.862234,8.70381 21.123096,15.00657 33.728056,17.36482 5.07638,0.90036 18.92897,0.60024 23.9194,-0.55745 z" />
    <path
       style="stroke-width:0.0429482"
       id="path8"
       d="m 290.6933,282.38179 c 1.2906,-4.75922 2.58122,-8.66094 2.9684,-8.96106 0.38719,-0.30012 1.37666,-0.55745 2.19406,-0.55745 0.8604,0 3.22653,-0.34299 5.33453,-0.77178 l 3.74277,-0.77169 5.20548,7.63191 c 2.88236,4.2447 5.46359,7.58905 5.72171,7.50332 0.25813,-0.12867 2.92539,-1.32915 5.97984,-2.6583 4.8183,-2.18672 5.4636,-2.57257 5.20548,-3.34434 -0.12906,-0.47165 -1.20457,-4.50204 -2.3231,-8.96114 l -2.06498,-8.10356 2.40914,-1.75794 c 1.37665,-0.98616 3.3556,-2.6583 4.47413,-3.68732 l 2.06498,-1.9294 2.66727,1.20049 c 1.50571,0.64318 5.16245,2.40104 8.17388,3.90172 3.01143,1.50068 5.67871,2.7441 5.8938,2.7441 0.21511,0 2.06499,-2.35818 4.12997,-5.18801 l 3.74276,-5.188 -6.5391,-6.56002 -6.53911,-6.51723 1.20458,-2.74403 c 0.60228,-1.50068 1.59175,-3.98752 2.10801,-5.53106 0.8604,-2.52966 1.07551,-2.78691 2.19404,-2.91554 0.68832,-0.0429 4.77527,-0.34301 9.07732,-0.64314 4.34505,-0.34301 7.95876,-0.68602 8.04482,-0.77177 0.17208,-0.1715 1.54874,-12.51982 1.37665,-12.69132 -0.043,-0.0429 -4.04393,-1.20053 -8.94826,-2.52968 l -8.86221,-2.44394 -0.30114,-2.82983 c -0.12907,-1.54353 -0.55927,-4.03035 -0.90342,-5.531 -0.34417,-1.50067 -0.60229,-2.8727 -0.60229,-3.04422 0,-0.1715 3.3986,-2.61543 7.52857,-5.40238 4.12996,-2.78695 7.52859,-5.27376 7.52859,-5.44526 0,-0.343 -4.68924,-11.01916 -5.0334,-11.44792 -0.043,-0.0857 -4.0009,0.81466 -8.73315,2.01518 -4.68923,1.24341 -8.73316,2.22955 -8.94826,2.22955 -0.2151,0 -1.24759,-1.11477 -2.28008,-2.44392 -1.03248,-1.37205 -2.71029,-3.38723 -3.69976,-4.45911 l -1.84988,-1.97231 4.04393,-8.40372 4.04392,-8.36083 -4.99037,-3.55871 c -2.71029,-1.9723 -5.16246,-3.68734 -5.37756,-3.7731 -0.2151,-0.0857 -3.31258,2.74408 -6.92629,6.30279 l -6.49609,6.47429 -1.93592,-0.85752 c -1.07551,-0.51452 -3.48465,-1.45779 -5.37756,-2.14381 -2.108,-0.72889 -3.52766,-1.50067 -3.74277,-1.9723 -0.12906,-0.42876 -0.51625,-4.58774 -0.8174,-9.21835 -0.30114,-4.6735 -0.64529,-8.48947 -0.77437,-8.48947 -0.12906,0 -2.79631,-0.30012 -5.85077,-0.64314 -3.09748,-0.34301 -5.89381,-0.64314 -6.28099,-0.64314 -0.47323,0 -1.20457,2.01518 -2.96841,8.27508 -1.24759,4.50199 -2.45216,8.57521 -2.66727,9.00398 -0.25812,0.47164 -0.90343,0.72889 -1.97894,0.72889 -0.8604,0 -3.44163,0.38588 -5.6787,0.81464 -2.23706,0.47165 -4.08694,0.77178 -4.12996,0.7289 0,0 -2.28009,-3.38722 -5.07641,-7.46044 -2.79634,-4.1161 -4.99037,-7.50331 -4.90433,-7.58907 0.086,-0.0857 2.88237,1.0719 6.23796,2.61545 3.39862,1.50067 6.19494,2.74407 6.28099,2.74407 0.30114,0 7.18441,-10.20452 7.18441,-10.59039 0,-0.17152 -2.92539,-3.12996 -6.49609,-6.51717 -4.51714,-4.33048 -6.41005,-6.38853 -6.23797,-6.86017 0.12906,-0.38588 0.98948,-2.91558 1.93592,-5.61676 1.29062,-3.64447 1.93593,-4.97363 2.49519,-5.05938 0.4302,-0.0429 4.51714,-0.47164 9.07732,-0.9004 4.60318,-0.47163 8.38898,-0.90039 8.47503,-0.98616 0.25812,-0.25725 1.16154,-12.39118 0.94645,-12.60556 -0.12907,-0.12862 -4.12997,-1.24341 -8.94827,-2.44394 l -8.69013,-2.27242 -0.98946,-5.10226 c -0.51625,-2.829809 -1.07551,-5.445259 -1.20457,-5.788279 -0.17208,-0.47162 1.84988,-2.14379 7.27045,-5.95976 4.12997,-2.91558 7.52858,-5.48815 7.52858,-5.65965 0,-0.1715 -1.11853,-2.65832 -2.53821,-5.44527 -1.37666,-2.82981 -2.58122,-5.3595 -2.66726,-5.61676 -0.12906,-0.30013 -3.44165,0.47164 -9.20638,2.05806 -4.94735,1.41491 -9.03429,2.52968 -9.03429,2.48682 -0.0861,-0.3859 -3.82882,-4.84501 -5.50662,-6.56006 l -2.10799,-2.22956 3.87183,-8.48946 3.87184,-8.489453 -5.20548,-3.55872 c -2.88236,-1.972293 -5.33453,-3.558714 -5.50661,-3.558714 -0.17208,0 -3.14049,2.915571 -6.62514,6.517163 -6.0659,6.174164 -6.36704,6.474294 -7.48557,6.045524 -0.60228,-0.25725 -3.05444,-1.11477 -5.42057,-1.88654 -2.36612,-0.77177 -4.34506,-1.45778 -4.43111,-1.50066 -0.086,-0.0429 -0.55926,-4.201859 -1.0755,-9.261244 l -0.94645,-9.132598 -2.79633,-0.257257 c -1.54875,-0.1715 -4.43111,-0.385885 -6.45308,-0.557393 l -3.65674,-0.300135 -1.24758,4.844999 c -0.64531,2.658313 -1.72082,6.688662 -2.28009,9.003983 l -1.11853,4.116105 -3.3556,0.51451 c -1.84987,0.25725 -4.38808,0.72889 -5.63567,1.07191 -1.2476,0.30012 -2.40915,0.47162 -2.58123,0.38587 -0.12906,-0.0858 -2.66726,-3.47296 -5.54964,-7.503309 -2.88237,-3.987485 -5.37755,-7.203176 -5.54964,-7.160312 -3.5707,1.414914 -11.18531,5.35952 -11.18531,5.745398 0,0.343015 1.07551,4.373364 2.40914,9.003973 1.29062,4.63063 2.32311,8.4466 2.23707,8.53235 -0.0861,0.0429 -1.29062,1.02902 -2.71029,2.14381 -1.41967,1.11477 -3.39861,2.82982 -4.38809,3.7302 l -1.76383,1.71505 -8.13089,-3.68734 c -4.43108,-2.01518 -8.30296,-3.68734 -8.51806,-3.68734 -0.25807,0 -2.10795,2.35819 -4.0869,5.23088 l -3.61373,5.23088 6.71123,6.47429 6.71116,6.43141 -1.03253,2.35818 c -0.5592,1.28629 -1.41967,3.73023 -1.9359,5.35952 -0.47325,1.67217 -0.98948,3.08708 -1.0755,3.17283 -0.086,0.0857 -4.25903,0.55738 -9.29244,1.0719 l -9.16335,0.900389 -0.47318,6.21703 c -0.25815,3.43009 -0.38723,6.34567 -0.2151,6.51717 0.129,0.12863 4.12995,1.2434 8.81918,2.44394 4.73221,1.20053 8.64706,2.27244 8.73316,2.35819 0.086,0.0858 0.3441,1.37203 0.55928,2.87269 0.25807,1.50066 0.73132,4.07322 1.11847,5.65964 0.38723,1.58641 0.64531,2.95845 0.55928,3.04421 -0.086,0.0429 -3.48465,2.48681 -7.57156,5.3595 l -7.39958,5.23089 0.98948,2.22955 c 2.83935,6.25991 4.3881,9.26123 4.8183,9.30411 0.25815,0 4.30208,-1.0719 9.03428,-2.40106 l 8.56111,-2.35818 0.77436,0.98615 c 0.4302,0.55738 2.108,2.4868 3.65674,4.33048 1.59175,1.84367 2.92538,3.51584 3.01142,3.68734 0.043,0.1715 -1.54873,3.9446 -3.5707,8.36084 -2.02195,4.41622 -3.65674,8.18933 -3.65674,8.31796 0.043,0.1715 2.40915,1.88654 5.29153,3.85884 l 5.24849,3.55872 6.5391,-6.6458 6.49609,-6.64579 3.01144,1.2434 c 1.6778,0.68603 4.17297,1.54355 5.59265,1.92943 l 2.53821,0.72889 0.86041,8.96111 c 0.47323,4.93074 0.98946,9.08972 1.16155,9.26122 0.38719,0.42876 12.21781,1.20054 12.56197,0.85753 0.17208,-0.12863 1.29061,-4.20185 2.53821,-8.96109 l 2.23706,-8.70385 2.53821,-0.30013 c 1.37665,-0.12864 3.87183,-0.55739 5.4636,-0.94327 1.63477,-0.3859 3.09746,-0.68603 3.31257,-0.68603 0.34416,0 10.7551,14.23486 10.7551,14.7065 0,0.12862 -2.92538,-1.20053 -6.49608,-2.95845 -3.5707,-1.75792 -6.53911,-3.17283 -6.62515,-3.17283 -0.043,0 -1.80686,2.3153 -3.87184,5.14513 l -3.74279,5.14512 6.41005,6.73156 6.41005,6.68867 -1.59175,3.90172 c -0.86042,2.14381 -1.72082,4.54486 -1.89291,5.31663 -0.17208,0.81465 -0.51623,1.50067 -0.77436,1.58642 -0.30114,0.12861 -4.47412,0.47163 -9.29242,0.85752 -4.86131,0.343 -8.86222,0.72889 -8.94825,0.77176 -0.25812,0.25726 -1.46269,12.43406 -1.24759,12.64844 0.12906,0.12864 4.17299,1.32917 8.94825,2.65832 l 8.73315,2.44394 0.12906,1.45778 c 0.12906,1.54355 1.20457,7.7177 1.63478,9.21836 0.2151,0.72889 -0.90343,1.6293 -7.52858,6.08838 l -7.70065,5.23094 2.58123,5.78825 c 1.46269,3.17281 2.83934,5.78824 3.14048,5.78824 0.30114,0 4.25903,-0.94322 8.86221,-2.14378 4.60319,-1.15769 8.47503,-2.14378 8.60409,-2.14378 0.12906,0 0.86041,0.85749 1.63478,1.92939 0.77436,1.07189 2.45216,3.12995 3.69976,4.5449 l 2.28007,2.61543 -3.82882,7.88917 c -2.10799,4.33051 -3.87182,8.10356 -3.91485,8.36082 -0.12906,0.51451 9.37847,7.67485 10.19585,7.67485 0.2151,0 3.22653,-2.78697 6.66816,-6.21704 3.44164,-3.43007 6.4961,-6.21703 6.79724,-6.21703 0.30114,0 1.24759,0.34299 2.15102,0.81464 0.86041,0.42878 3.18352,1.32914 5.0764,1.97232 l 3.52769,1.15762 0.25812,2.6583 c 0.12906,1.41495 0.47322,5.53107 0.73135,9.04687 0.25812,3.55873 0.60229,6.56009 0.73135,6.68868 0.30114,0.25726 10.02376,1.24342 11.91666,1.24342 0.73135,0 1.16155,-1.07189 3.18352,-8.48948 z m -9.0343,-23.88198 c -19.05806,-3.30147 -34.02918,-18.43671 -37.16967,-37.55943 -3.52767,-21.78105 9.29242,-43.09046 30.37244,-50.25076 22.84386,-7.84633 47.9678,3.68734 57.17417,26.1544 3.52768,8.74673 4.17299,19.68012 1.6778,28.8556 -1.07552,3.81597 -3.95788,10.11878 -6.28099,13.59171 -5.0334,7.63199 -14.49788,14.74939 -23.48915,17.70781 -6.53911,2.14385 -15.35831,2.7441 -22.2846,1.50067 z m -36.13718,-87.89595 -1.2906,-0.68602 5.72171,-2.78695 c 3.1405,-1.54352 5.76473,-2.8727 5.80776,-2.91556 0.043,-0.0429 -1.03249,-4.03035 -2.40914,-8.91823 l -2.49519,-8.87534 3.26956,-2.57257 c 1.80685,-1.41491 3.82882,-3.12996 4.51714,-3.85885 l 1.20457,-1.28628 1.8929,0.94327 c 1.03249,0.47164 1.8929,0.98615 1.8929,1.11478 0,0.1715 -2.62424,1.41492 -5.80777,2.78695 -3.1835,1.37203 -5.80774,2.61544 -5.80774,2.70119 0,0.12863 0.94643,3.9446 2.15102,8.53234 1.16154,4.58773 2.15101,8.57522 2.15101,8.91823 0,0.30013 -1.29061,1.54353 -2.92538,2.74407 -1.59176,1.15765 -3.44164,2.74406 -4.12996,3.47295 -1.46271,1.50067 -1.93594,1.58642 -3.74279,0.68602 z m -41.0415,-29.11285 c -7.5716,-2.22956 -13.76655,-5.70252 -19.10108,-10.76189 -10.49699,-9.94727 -15.65944,-23.45322 -14.23976,-37.38795 1.63477,-16.035659 10.88416,-29.370109 25.16695,-36.358909 8.2169,-3.98747 16.51985,-5.53102 24.86582,-4.63062 25.98436,2.95845 44.26803,25.98291 40.69734,51.408419 -2.36613,17.02179 -14.28278,31.51392 -30.37243,36.87342 -5.8938,1.9723 -8.389,2.3153 -16.04662,2.1438 -6.15193,-0.12862 -7.61463,-0.30012 -10.97022,-1.28627 z" />
    <circle
       r="11.155586"
       transform="scale(1,-1)"
       cy="-232.49048"
       cx="120.38869"
       id="path847"
       style="opacity:0.98000004;fill:#d4b24e;fill-opacity:1;stroke:#121212;stroke-width:15.18882751;stroke-linejoin:round;stroke-miterlimit:4;stroke-dasharray:none;stroke-dashoffset:0;stroke-opacity:1;paint-order:markers stroke fill" />
  </g>
</svg>
