<?xml version="1.0" encoding="UTF-8" standalone="no"?>
<svg
   xmlns:dc="http://purl.org/dc/elements/1.1/"
   xmlns:cc="http://creativecommons.org/ns#"
   xmlns:rdf="http://www.w3.org/1999/02/22-rdf-syntax-ns#"
   xmlns:svg="http://www.w3.org/2000/svg"
   xmlns="http://www.w3.org/2000/svg"
   xmlns:sodipodi="http://sodipodi.sourceforge.net/DTD/sodipodi-0.dtd"
   xmlns:inkscape="http://www.inkscape.org/namespaces/inkscape"
   id="svg14"
   preserveAspectRatio="xMidYMid meet"
   viewBox="0 0 37.500001 37.5"
   height="50"
   width="50"
   version="1.0"
   sodipodi:docname="transition.svg"
   inkscape:version="0.92.2 5c3e80d, 2017-08-06">
  <sodipodi:namedview
     pagecolor="#ffffff"
     bordercolor="#666666"
     borderopacity="1"
     objecttolerance="10"
     gridtolerance="10"
     guidetolerance="10"
     inkscape:pageopacity="0"
     inkscape:pageshadow="2"
     inkscape:window-width="1033"
     inkscape:window-height="641"
     id="namedview9"
     showgrid="false"
     inkscape:zoom="4.72"
     inkscape:cx="25"
     inkscape:cy="25"
     inkscape:window-x="200"
     inkscape:window-y="53"
     inkscape:window-maximized="0"
     inkscape:current-layer="g1335" />
  <defs
     id="defs18">
    <marker
       inkscape:stockid="Arrow2Send"
       orient="auto"
       refY="0.0"
       refX="0.0"
       id="Arrow2Send"
       style="overflow:visible;"
       inkscape:isstock="true">
      <path
         id="path861"
         style="fill-rule:evenodd;stroke-width:0.625;stroke-linejoin:round;stroke:#000000;stroke-opacity:1;fill:#000000;fill-opacity:1"
         d="M 8.7185878,4.0337352 L -2.2072895,0.016013256 L 8.7185884,-4.0017078 C 6.9730900,-1.6296469 6.9831476,1.6157441 8.7185878,4.0337352 z "
         transform="scale(0.3) rotate(180) translate(-2.3,0)" />
    </marker>
    <marker
       inkscape:stockid="Arrow1Sstart"
       orient="auto"
       refY="0.0"
       refX="0.0"
       id="Arrow1Sstart"
       style="overflow:visible"
       inkscape:isstock="true">
      <path
         id="path840"
         d="M 0.0,0.0 L 5.0,-5.0 L -12.5,0.0 L 5.0,5.0 L 0.0,0.0 z "
         style="fill-rule:evenodd;stroke:#000000;stroke-width:1pt;stroke-opacity:1;fill:#000000;fill-opacity:1"
         transform="scale(0.2) translate(6,0)" />
    </marker>
    <marker
       inkscape:stockid="Arrow1Mstart"
       orient="auto"
       refY="0.0"
       refX="0.0"
       id="Arrow1Mstart"
       style="overflow:visible"
       inkscape:isstock="true">
      <path
         id="path834"
         d="M 0.0,0.0 L 5.0,-5.0 L -12.5,0.0 L 5.0,5.0 L 0.0,0.0 z "
         style="fill-rule:evenodd;stroke:#000000;stroke-width:1pt;stroke-opacity:1;fill:#000000;fill-opacity:1"
         transform="scale(0.4) translate(10,0)" />
    </marker>
    <marker
       inkscape:stockid="Arrow1Mend"
       orient="auto"
       refY="0.0"
       refX="0.0"
       id="Arrow1Mend"
       style="overflow:visible;"
       inkscape:isstock="true">
      <path
         id="path837"
         d="M 0.0,0.0 L 5.0,-5.0 L -12.5,0.0 L 5.0,5.0 L 0.0,0.0 z "
         style="fill-rule:evenodd;stroke:#000000;stroke-width:1pt;stroke-opacity:1;fill:#000000;fill-opacity:1"
         transform="scale(0.4) rotate(180) translate(10,0)" />
    </marker>
    <marker
       inkscape:stockid="Arrow1Lend"
       orient="auto"
       refY="0.0"
       refX="0.0"
       id="Arrow1Lend"
       style="overflow:visible;"
       inkscape:isstock="true">
      <path
         id="path831"
         d="M 0.0,0.0 L 5.0,-5.0 L -12.5,0.0 L 5.0,5.0 L 0.0,0.0 z "
         style="fill-rule:evenodd;stroke:#000000;stroke-width:1pt;stroke-opacity:1;fill:#000000;fill-opacity:1"
         transform="scale(0.8) rotate(180) translate(12.5,0)" />
    </marker>
  </defs>
  <metadata
     id="metadata2">
Created by potrace 1.15, written by Peter Selinger 2001-2017
<rdf:RDF>
  <cc:Work
     rdf:about="">
    <dc:format>image/svg+xml</dc:format>
    <dc:type
       rdf:resource="http://purl.org/dc/dcmitype/StillImage" />
    <dc:title />
  </cc:Work>
</rdf:RDF>
</metadata>
  <g
     id="g1335"
     transform="matrix(1.5400131,0,0,1.5400131,-0.4820844,1.3535739)">
    <g
       transform="matrix(0.54054375,0,0,0.55424584,0.28768923,-0.9974302)"
       id="g824">
      <path
         inkscape:connector-curvature="0"
         d="m 12.308563,4.245311 c -0.01291,0.042872 -0.167783,0.565959 -0.348465,1.16623 -0.176386,0.595978 -0.322651,1.089046 -0.322651,1.097626 0,0.00429 -0.141967,0.021439 -0.30975,0.038585 -0.17208,0.017152 -0.524851,0.07289 -0.787276,0.128628 -0.25812,0.055738 -0.47322,0.098616 -0.477525,0.09433 -0.0043,0 -0.3011406,-0.428764 -0.6625134,-0.947565 C 9.0433147,5.304345 8.7335644,4.862721 8.7163593,4.845576 8.6905443,4.81985 7.1934304,5.458699 7.1246027,5.523017 7.1159927,5.535876 7.2407554,6.063257 7.3999281,6.706392 7.6537508,7.709695 7.6838634,7.876908 7.6279358,7.906928 7.5117832,7.971238 7.0471652,8.327112 6.8105475,8.532918 6.6857923,8.644393 6.5524272,8.760163 6.5137121,8.790175 6.4534796,8.83734 6.2900019,8.777308 5.3607585,8.352838 4.7670804,8.082714 4.2637399,7.859763 4.2422299,7.859763 c -0.030113,0 -0.890521,1.123351 -1.006681,1.316297 -0.02151,0.038585 0.2323127,0.312995 0.8259982,0.89182 l 0.8561035,0.840368 -0.1419677,0.308709 c -0.077437,0.171507 -0.2064977,0.493075 -0.2839353,0.716033 -0.077438,0.222952 -0.1419676,0.411612 -0.1462652,0.420184 -0.00861,0.0086 -0.559268,0.06003 -1.2303837,0.120056 -0.6711232,0.06002 -1.2346888,0.124335 -1.2475963,0.137202 -0.025815,0.03001 -0.2237101,1.642151 -0.2022001,1.659304 0.00861,0.0043 0.5463605,0.14149 1.1959736,0.308707 l 1.1830588,0.300132 0.030112,0.317283 c 0.03012,0.295845 0.1333652,0.887535 0.1892927,1.093341 0.02151,0.08146 -0.1032451,0.180079 -0.980866,0.767482 -0.5506581,0.373021 -1.0195885,0.690304 -1.0367936,0.707455 -0.030112,0.02572 0.5764731,1.423486 0.6539107,1.509238 0.012907,0.01715 0.5678706,-0.111478 1.2303838,-0.28727 0.6582156,-0.175792 1.2002712,-0.317282 1.2045761,-0.308707 0.06453,0.102902 0.5936782,0.758905 0.7571558,0.938985 l 0.2194053,0.244394 -0.5506581,1.07619 -0.5549631,1.080477 0.1333577,0.102902 c 0.07314,0.05574 0.3871878,0.278695 0.6969307,0.488788 l 0.563573,0.385885 0.8905209,-0.84466 C 7.9764012,21.683009 8.410914,21.3057 8.4496291,21.3057 c 0.038715,0.0043 0.2151002,0.0686 0.3914854,0.145778 0.1763852,0.07289 0.4775255,0.18008 0.6668182,0.235819 l 0.3441604,0.09861 0.025815,0.21438 c 0.017205,0.115765 0.051622,0.638854 0.081742,1.157654 0.030112,0.523089 0.068827,0.969 0.08604,0.994725 0.03011,0.05145 1.660584,0.205806 1.703604,0.162929 0.01291,-0.01286 0.11616,-0.351584 0.236618,-0.746044 0.45171,-1.530675 0.464618,-1.556401 0.56787,-1.577839 0.05162,-0.0086 0.266723,-0.04288 0.473221,-0.0686 0.210802,-0.03001 0.516248,-0.08575 0.679725,-0.128629 l 0.301141,-0.07289 0.292538,0.41161 c 0.15918,0.227243 0.468923,0.668867 0.688328,0.981862 0.326955,0.467349 0.412995,0.565965 0.481831,0.544527 0.10755,-0.0343 1.462695,-0.656004 1.492809,-0.681731 0.01291,-0.01286 -0.107551,-0.531663 -0.266731,-1.149077 -0.154867,-0.621704 -0.283928,-1.140505 -0.283928,-1.153368 0,-0.01715 0.150571,-0.141491 0.335558,-0.274407 0.180685,-0.137203 0.456016,-0.360158 0.610889,-0.497362 l 0.279632,-0.244394 0.430205,0.192943 c 0.236612,0.10719 0.73565,0.338721 1.109928,0.510225 l 0.679722,0.312995 0.516247,-0.690305 0.516245,-0.694592 -0.856107,-0.857522 -0.86041,-0.861809 0.16778,-0.343009 c 0.09034,-0.188654 0.215102,-0.501649 0.279633,-0.69888 0.06453,-0.192943 0.129062,-0.364445 0.14627,-0.373022 0.01721,-0.0086 0.576474,-0.0686 1.247592,-0.128627 0.671119,-0.06003 1.226083,-0.115766 1.230386,-0.120053 0.0086,-0.01286 0.16778,-1.500664 0.16778,-1.590701 0,-0.07289 -0.154874,-0.120056 -1.183063,-0.385885 l -1.183062,-0.304423 -0.05163,-0.441623 c -0.02581,-0.244391 -0.08174,-0.578825 -0.116154,-0.737465 -0.03872,-0.162935 -0.06883,-0.304423 -0.06883,-0.317289 0,-0.0086 0.46462,-0.330141 1.03249,-0.71174 0.567869,-0.377313 1.032491,-0.694594 1.032491,-0.703167 0,-0.0043 -0.154874,-0.347301 -0.344163,-0.758905 C 21.261115,9.360422 21.175075,9.21464 21.114846,9.223213 21.071826,9.231793 20.525466,9.373281 19.90167,9.536208 19.277876,9.703434 18.765932,9.832062 18.757329,9.823489 18.748719,9.814909 18.658381,9.690567 18.55083,9.544793 18.443279,9.403298 18.223875,9.146041 18.064699,8.978827 L 17.776462,8.670119 18.322822,7.606792 C 18.619663,7.019387 18.86488,6.522026 18.86488,6.4963 c 0,-0.042871 -1.303521,-0.951844 -1.36805,-0.951844 -0.03442,0 -0.606589,0.53166 -1.583155,1.470645 L 15.689972,7.225193 15.233956,7.049406 C 14.984439,6.95079 14.653178,6.839307 14.502608,6.800722 L 14.227275,6.727831 14.205765,6.487727 C 14.18856,6.359099 14.154143,5.831725 14.128328,5.321498 14.098215,4.806983 14.063798,4.369646 14.046593,4.348214 14.033685,4.322481 13.663709,4.275324 13.229204,4.241018 12.261238,4.159554 12.334378,4.155268 12.308563,4.245308 Z m 1.226086,4.206143 c 2.353218,0.553099 4.035315,2.21669 4.517144,4.471973 0.12476,0.578824 0.137666,1.582126 0.02581,2.165241 -0.468923,2.508252 -2.447866,4.480551 -4.998979,4.986488 C 11.116894,20.461042 9.0562147,19.873638 7.6709559,18.52733 7.1805229,18.051405 6.823455,17.554043 6.5137121,16.928053 6.2254719,16.340649 6.0791992,15.864725 5.9845566,15.221585 5.7135288,13.403635 6.380347,11.49994 7.7699034,10.132191 8.6561268,9.26181 9.882213,8.631534 11.142709,8.395709 c 0.507638,-0.090036 1.892897,-0.060024 2.39194,0.055745 z"
         id="path6"
         style="fill:#000000;stroke:none;stroke-width:0.00429482" />
      <circle
         style="opacity:0.98000004;fill:#d4b24e;fill-opacity:1;stroke:#121212;stroke-width:1.51888275;stroke-linejoin:round;stroke-miterlimit:4;stroke-dasharray:none;stroke-dashoffset:0;stroke-opacity:1;paint-order:markers stroke fill"
         id="path847"
         cx="12.038869"
         cy="14.250941"
         r="1.1155586" />
    </g>
    <path
       inkscape:connector-curvature="0"
       id="path826"
       d="M 5.4025424,20.000559 18.908898,2.521745"
       style="opacity:1;fill:none;fill-rule:evenodd;stroke:#000000;stroke-width:0.75;stroke-linecap:butt;stroke-linejoin:miter;stroke-miterlimit:4.5;stroke-dasharray:none;stroke-opacity:1;marker-start:url(#Arrow1Sstart);marker-end:url(#Arrow2Send)" />
    <g
       id="g1326"
       transform="matrix(0.54054375,0,0,0.55424584,11.728367,6.767959)">
      <path
         style="fill:#000000;stroke:none;stroke-width:0.00429482"
         id="path1322"
         d="m 12.308563,4.245311 c -0.01291,0.042872 -0.167783,0.565959 -0.348465,1.16623 -0.176386,0.595978 -0.322651,1.089046 -0.322651,1.097626 0,0.00429 -0.141967,0.021439 -0.30975,0.038585 -0.17208,0.017152 -0.524851,0.07289 -0.787276,0.128628 -0.25812,0.055738 -0.47322,0.098616 -0.477525,0.09433 -0.0043,0 -0.3011406,-0.428764 -0.6625134,-0.947565 C 9.0433147,5.304345 8.7335644,4.862721 8.7163593,4.845576 8.6905443,4.81985 7.1934304,5.458699 7.1246027,5.523017 7.1159927,5.535876 7.2407554,6.063257 7.3999281,6.706392 7.6537508,7.709695 7.6838634,7.876908 7.6279358,7.906928 7.5117832,7.971238 7.0471652,8.327112 6.8105475,8.532918 6.6857923,8.644393 6.5524272,8.760163 6.5137121,8.790175 6.4534796,8.83734 6.2900019,8.777308 5.3607585,8.352838 4.7670804,8.082714 4.2637399,7.859763 4.2422299,7.859763 c -0.030113,0 -0.890521,1.123351 -1.006681,1.316297 -0.02151,0.038585 0.2323127,0.312995 0.8259982,0.89182 l 0.8561035,0.840368 -0.1419677,0.308709 c -0.077437,0.171507 -0.2064977,0.493075 -0.2839353,0.716033 -0.077438,0.222952 -0.1419676,0.411612 -0.1462652,0.420184 -0.00861,0.0086 -0.559268,0.06003 -1.2303837,0.120056 -0.6711232,0.06002 -1.2346888,0.124335 -1.2475963,0.137202 -0.025815,0.03001 -0.2237101,1.642151 -0.2022001,1.659304 0.00861,0.0043 0.5463605,0.14149 1.1959736,0.308707 l 1.1830588,0.300132 0.030112,0.317283 c 0.03012,0.295845 0.1333652,0.887535 0.1892927,1.093341 0.02151,0.08146 -0.1032451,0.180079 -0.980866,0.767482 -0.5506581,0.373021 -1.0195885,0.690304 -1.0367936,0.707455 -0.030112,0.02572 0.5764731,1.423486 0.6539107,1.509238 0.012907,0.01715 0.5678706,-0.111478 1.2303838,-0.28727 0.6582156,-0.175792 1.2002712,-0.317282 1.2045761,-0.308707 0.06453,0.102902 0.5936782,0.758905 0.7571558,0.938985 l 0.2194053,0.244394 -0.5506581,1.07619 -0.5549631,1.080477 0.1333577,0.102902 c 0.07314,0.05574 0.3871878,0.278695 0.6969307,0.488788 l 0.563573,0.385885 0.8905209,-0.84466 C 7.9764012,21.683009 8.410914,21.3057 8.4496291,21.3057 c 0.038715,0.0043 0.2151002,0.0686 0.3914854,0.145778 0.1763852,0.07289 0.4775255,0.18008 0.6668182,0.235819 l 0.3441604,0.09861 0.025815,0.21438 c 0.017205,0.115765 0.051622,0.638854 0.081742,1.157654 0.030112,0.523089 0.068827,0.969 0.08604,0.994725 0.03011,0.05145 1.660584,0.205806 1.703604,0.162929 0.01291,-0.01286 0.11616,-0.351584 0.236618,-0.746044 0.45171,-1.530675 0.464618,-1.556401 0.56787,-1.577839 0.05162,-0.0086 0.266723,-0.04288 0.473221,-0.0686 0.210802,-0.03001 0.516248,-0.08575 0.679725,-0.128629 l 0.301141,-0.07289 0.292538,0.41161 c 0.15918,0.227243 0.468923,0.668867 0.688328,0.981862 0.326955,0.467349 0.412995,0.565965 0.481831,0.544527 0.10755,-0.0343 1.462695,-0.656004 1.492809,-0.681731 0.01291,-0.01286 -0.107551,-0.531663 -0.266731,-1.149077 -0.154867,-0.621704 -0.283928,-1.140505 -0.283928,-1.153368 0,-0.01715 0.150571,-0.141491 0.335558,-0.274407 0.180685,-0.137203 0.456016,-0.360158 0.610889,-0.497362 l 0.279632,-0.244394 0.430205,0.192943 c 0.236612,0.10719 0.73565,0.338721 1.109928,0.510225 l 0.679722,0.312995 0.516247,-0.690305 0.516245,-0.694592 -0.856107,-0.857522 -0.86041,-0.861809 0.16778,-0.343009 c 0.09034,-0.188654 0.215102,-0.501649 0.279633,-0.69888 0.06453,-0.192943 0.129062,-0.364445 0.14627,-0.373022 0.01721,-0.0086 0.576474,-0.0686 1.247592,-0.128627 0.671119,-0.06003 1.226083,-0.115766 1.230386,-0.120053 0.0086,-0.01286 0.16778,-1.500664 0.16778,-1.590701 0,-0.07289 -0.154874,-0.120056 -1.183063,-0.385885 l -1.183062,-0.304423 -0.05163,-0.441623 c -0.02581,-0.244391 -0.08174,-0.578825 -0.116154,-0.737465 -0.03872,-0.162935 -0.06883,-0.304423 -0.06883,-0.317289 0,-0.0086 0.46462,-0.330141 1.03249,-0.71174 0.567869,-0.377313 1.032491,-0.694594 1.032491,-0.703167 0,-0.0043 -0.154874,-0.347301 -0.344163,-0.758905 C 21.261115,9.360422 21.175075,9.21464 21.114846,9.223213 21.071826,9.231793 20.525466,9.373281 19.90167,9.536208 19.277876,9.703434 18.765932,9.832062 18.757329,9.823489 18.748719,9.814909 18.658381,9.690567 18.55083,9.544793 18.443279,9.403298 18.223875,9.146041 18.064699,8.978827 L 17.776462,8.670119 18.322822,7.606792 C 18.619663,7.019387 18.86488,6.522026 18.86488,6.4963 c 0,-0.042871 -1.303521,-0.951844 -1.36805,-0.951844 -0.03442,0 -0.606589,0.53166 -1.583155,1.470645 L 15.689972,7.225193 15.233956,7.049406 C 14.984439,6.95079 14.653178,6.839307 14.502608,6.800722 L 14.227275,6.727831 14.205765,6.487727 C 14.18856,6.359099 14.154143,5.831725 14.128328,5.321498 14.098215,4.806983 14.063798,4.369646 14.046593,4.348214 14.033685,4.322481 13.663709,4.275324 13.229204,4.241018 12.261238,4.159554 12.334378,4.155268 12.308563,4.245308 Z m 1.226086,4.206143 c 2.353218,0.553099 4.035315,2.21669 4.517144,4.471973 0.12476,0.578824 0.137666,1.582126 0.02581,2.165241 -0.468923,2.508252 -2.447866,4.480551 -4.998979,4.986488 C 11.116894,20.461042 9.0562147,19.873638 7.6709559,18.52733 7.1805229,18.051405 6.823455,17.554043 6.5137121,16.928053 6.2254719,16.340649 6.0791992,15.864725 5.9845566,15.221585 5.7135288,13.403635 6.380347,11.49994 7.7699034,10.132191 8.6561268,9.26181 9.882213,8.631534 11.142709,8.395709 c 0.507638,-0.090036 1.892897,-0.060024 2.39194,0.055745 z"
         inkscape:connector-curvature="0" />
      <circle
         r="1.1155586"
         cy="14.250941"
         cx="12.038869"
         id="circle1324"
         style="opacity:0.98000004;fill:#d4b24e;fill-opacity:1;stroke:#121212;stroke-width:1.51888275;stroke-linejoin:round;stroke-miterlimit:4;stroke-dasharray:none;stroke-dashoffset:0;stroke-opacity:1;paint-order:markers stroke fill" />
    </g>
  </g>
</svg>
